<svg width="150" height="150" viewBox="0 0 150 150" fill="none" xmlns="http://www.w3.org/2000/svg">
<path d="M71.5 44C71.5 45.6 72.1667 46.6667 72.5 47L82 38L83 35C83 34.5 83.5 33.5 83 32L83 32C82.8735 31.6205 82.6667 31 82.5 31C82.5 31.4 80.5 33.3333 79.5 34C78.8333 34.5 77 35.9 75 37.5C72.5 39.5 71.5 42 71.5 44Z" fill="url(#paint0_linear_5_7)"/>
<path d="M72 46C72 47.2 74 50.1667 75 51.5C73.8 49.1 75.1667 46.8333 76 46L81 41.5C81.732 40.8726 82.8052 39.3396 83.2069 37C83.4454 35.6108 83.5 34 83 32C83.5 38 75.5 41.5 74 42.5C72.5 43.5 72 44.5 72 46Z" fill="url(#paint1_linear_5_7)"/>
<path d="M71.5 27C66.3 31 66 35.6667 66.5 37.5C70.8333 33.8333 80.2 26.7 81 25.5C81.8 24.3 81.1667 21.6667 81 21C81 20.8333 81 20 79.5 19C79.5 21 77 23.5 71.5 27Z" fill="url(#paint2_linear_5_7)"/>
<path d="M66.5 37.5C66.5 38.7 68.8333 42.6667 70 44.5C68 38.5 81 33 83 28C85.8 23.6 81.8333 19.1667 79.5 17.5V19C80.7 20.2 81 21.8333 81 22.5C81 25 78.8333 26.6667 77.5 28C73.8333 30.6667 66.5 36.3 66.5 37.5Z" fill="url(#paint3_linear_5_7)"/>
<path d="M75.5 57V65.5C76.5 64.6667 79.6 62.5 84 60.5C90 58.1 91.1667 54.5 91 53V42C90.5 45 83 50 80 51.5C76.5941 53.2029 75.6667 56 75.5 57Z" fill="url(#paint4_linear_5_7)"/>
<path d="M75.5 70V81C75.5 81.4 75.8333 81.5 76 81.5H77C77.4 81.5 77.5 81.1667 77.5 81V77.5C78.3333 76.8333 81.1 75 85.5 73C89.9 71 91 68.8333 91 68V57.5C90.5 60 85.5 63 80.5 65C76.5 66.6 75.5 69 75.5 70Z" fill="url(#paint5_linear_5_7)"/>
<path d="M74.5149 57V65.5C73.5149 64.6667 70.4149 62.5 66.0149 60.5C60.0149 58.1 58.8482 54.5 59.0149 53V42C59.5149 45 67.0149 50 70.0149 51.5C73.4207 53.2029 74.3482 56 74.5149 57Z" fill="url(#paint6_linear_5_7)"/>
<path d="M74.5149 70V81C74.5149 81.4 74.1815 81.5 74.0149 81.5H73.0149C72.6149 81.5 72.5149 81.1667 72.5149 81V77.5C71.6815 76.8333 68.9149 75 64.5149 73C60.1149 71 59.0149 68.8333 59.0149 68V57.5C59.5149 60 64.5149 63 69.5149 65C73.5149 66.6 74.5149 69 74.5149 70Z" fill="url(#paint7_linear_5_7)"/>
<path d="M11 119.5H15C15.5523 119.5 16 119.052 16 118.5V106.5H26C26.5523 106.5 27 106.052 27 105.5V102.5C27 101.948 26.5523 101.5 26 101.5H16V93.5H29.5C30.0523 93.5 30.5 93.0523 30.5 92.5V89.5C30.5 88.9477 30.0523 88.5 29.5 88.5H11C10.4477 88.5 10 88.9477 10 89.5V118.5C10 119.052 10.4477 119.5 11 119.5Z" fill="#01233E"/>
<path fill-rule="evenodd" clip-rule="evenodd" d="M30.8544 119.5C30.3825 119.5 30 119.117 30 118.646C30 118.549 30.0163 118.454 30.0482 118.363L40 90L40.0257 89.923C40.3089 89.0732 41.1042 88.5 42 88.5H46C46.5972 88.5 47.1274 88.8821 47.3162 89.4487L47.5 90C49.1495 94.5145 50.4536 98.2431 51.7226 101.871C52.9252 105.31 54.0963 108.658 55.5 112.5C55.9215 113.654 56.4382 114.857 56.9153 115.829C56.9669 115.934 57.0739 116 57.191 116C57.3616 116 57.5 116.138 57.5 116.309V118.5C57.5 119.052 57.0523 119.5 56.5 119.5H54C52.7921 119.5 51.7058 118.765 51.2572 117.643L51 117L49.5 112.5H38.5L36 119.5H30.8544ZM44 96L48 107.5H40L44 96Z" fill="#01233E"/>
<path d="M64 119.5H82C82.5523 119.5 83 119.052 83 118.5V115.5C83 114.948 82.5523 114.5 82 114.5H68.6767V106.5H78.5C79.0523 106.5 79.5 106.052 79.5 105.5V102.5C79.5 101.948 79.0523 101.5 78.5 101.5H68.6767V93.5H82C82.5523 93.5 83 93.0523 83 92.5V89.5C83 88.9477 82.5523 88.5 82 88.5H64C63.4477 88.5 63 88.9477 63 89.5V118.5C63 119.052 63.4477 119.5 64 119.5Z" fill="#01233E"/>
<path d="M90 118C89.2 117.6 89.3333 116.833 89.5 116.5L90.5 114C90.82 113.2 91.9667 113.333 92.5 113.5L96 114.5C103 116 105.5 113 106 112C106.5 111 107 108.5 102.5 107C92.5 104.5 88 102.5 88.5 96C89 89.5 94 89 96 88.5C98 88 106 88.5 107.5 89C108.7 89.4 109 89.8333 109 90V93C109 94.5 108.5 94 105.5 93.5C98.5 92.5 94 93 94 96C94 99 99 100.5 102.5 101C106 101.5 113 105.5 112 112C111.2 117.2 106.333 119.167 104 119.5C102 119.667 97.4 119.9 95 119.5C92 119 91 118.5 90 118Z" fill="#01233E"/>
<path fill-rule="evenodd" clip-rule="evenodd" d="M119 119.5C118.448 119.5 118 119.052 118 118.5V89.5C118 88.9477 118.448 88.5 119 88.5H130C135.523 88.5 140 92.9772 140 98.5C140 104.299 135.299 109 129.5 109H124V118.5C124 119.052 123.552 119.5 123 119.5H119ZM124 93.5V104H129C131.761 104 134 101.761 134 99V98.5C134 95.7386 131.761 93.5 129 93.5H124Z" fill="#01233E"/>
<path d="M12.8916 129.192H11.1748V131H10.4336V126.734H13.1436V127.332H11.1748V128.601H12.8916V129.192Z" fill="#282829"/>
<path d="M16.1276 130.007H14.4753L14.1296 131H13.3591L14.9704 126.734H15.6354L17.2497 131H16.4762L16.1276 130.007ZM14.6833 129.409H15.9196L15.3014 127.64L14.6833 129.409Z" fill="#282829"/>
<path d="M21.4964 129.611C21.4535 130.066 21.2855 130.422 20.9925 130.678C20.6996 130.932 20.3099 131.059 19.8236 131.059C19.4837 131.059 19.1839 130.979 18.9242 130.818C18.6664 130.656 18.4671 130.427 18.3265 130.13C18.1859 129.833 18.1127 129.488 18.1068 129.096V128.697C18.1068 128.295 18.1781 127.94 18.3207 127.634C18.4632 127.327 18.6673 127.091 18.933 126.925C19.2005 126.759 19.5091 126.676 19.8587 126.676C20.3295 126.676 20.7084 126.804 20.9955 127.06C21.2826 127.315 21.4496 127.677 21.4964 128.144H20.7582C20.723 127.837 20.6332 127.616 20.4886 127.481C20.3461 127.345 20.1361 127.276 19.8587 127.276C19.5365 127.276 19.2884 127.395 19.1146 127.631C18.9427 127.865 18.8548 128.21 18.8509 128.665V129.043C18.8509 129.504 18.933 129.855 19.097 130.098C19.263 130.34 19.5052 130.461 19.8236 130.461C20.1146 130.461 20.3334 130.396 20.4798 130.265C20.6263 130.134 20.7191 129.916 20.7582 129.611H21.4964Z" fill="#282829"/>
<path d="M25.8516 126.734V129.585C25.8516 130.038 25.7061 130.397 25.4151 130.663C25.126 130.927 24.7403 131.059 24.2579 131.059C23.7696 131.059 23.3819 130.929 23.0948 130.669C22.8077 130.407 22.6641 130.045 22.6641 129.582V126.734H23.4024V129.588C23.4024 129.873 23.4746 130.091 23.6192 130.241C23.7637 130.392 23.9766 130.467 24.2579 130.467C24.8282 130.467 25.1133 130.166 25.1133 129.564V126.734H25.8516Z" fill="#282829"/>
<path d="M27.9568 130.408H29.8933V131H27.2155V126.734H27.9568V130.408Z" fill="#282829"/>
<path d="M31.0316 131V126.734H32.2914C32.6684 126.734 33.0023 126.818 33.2934 126.986C33.5863 127.154 33.8129 127.393 33.973 127.701C34.1332 128.01 34.2133 128.363 34.2133 128.762V128.976C34.2133 129.38 34.1322 129.735 33.9701 130.042C33.81 130.349 33.5805 130.585 33.2816 130.751C32.9848 130.917 32.6439 131 32.2592 131H31.0316ZM31.7729 127.332V130.408H32.2563C32.6449 130.408 32.9428 130.287 33.1498 130.045C33.3588 129.801 33.4652 129.451 33.4691 128.996V128.759C33.4691 128.296 33.3686 127.942 33.1674 127.698C32.9662 127.454 32.6742 127.332 32.2914 127.332H31.7729Z" fill="#282829"/>
<path d="M37.8448 130.007H36.1925L35.8468 131H35.0763L36.6876 126.734H37.3526L38.9669 131H38.1934L37.8448 130.007ZM36.4005 129.409H37.6368L37.0186 127.64L36.4005 129.409Z" fill="#282829"/>
<path d="M40.0232 131V126.734H41.283C41.6599 126.734 41.9939 126.818 42.2849 126.986C42.5779 127.154 42.8045 127.393 42.9646 127.701C43.1248 128.01 43.2048 128.363 43.2048 128.762V128.976C43.2048 129.38 43.1238 129.735 42.9617 130.042C42.8015 130.349 42.572 130.585 42.2732 130.751C41.9763 130.917 41.6355 131 41.2507 131H40.0232ZM40.7644 127.332V130.408H41.2478C41.6365 130.408 41.9343 130.287 42.1414 130.045C42.3504 129.801 42.4568 129.451 42.4607 128.996V128.759C42.4607 128.296 42.3601 127.942 42.1589 127.698C41.9578 127.454 41.6658 127.332 41.283 127.332H40.7644Z" fill="#282829"/>
<path d="M47.0063 129.096H45.2543V130.408H47.3022V131H44.5131V126.734H47.2817V127.332H45.2543V128.51H47.0063V129.096Z" fill="#282829"/>
<path d="M53.033 129.096H51.2811V130.408H53.3289V131H50.5398V126.734H53.3084V127.332H51.2811V128.51H53.033V129.096Z" fill="#282829"/>
<path d="M56.0054 130.071L57.0893 126.734H57.9038L56.3686 131H55.6509L54.1216 126.734H54.9331L56.0054 130.071Z" fill="#282829"/>
<path d="M61.1222 130.007H59.4699L59.1242 131H58.3537L59.965 126.734H60.63L62.2443 131H61.4709L61.1222 130.007ZM59.6779 129.409H60.9142L60.2961 127.64L59.6779 129.409Z" fill="#282829"/>
<path d="M66.6844 131H65.9432L64.0418 127.974V131H63.3006V126.734H64.0418L65.9491 129.772V126.734H66.6844V131Z" fill="#282829"/>
<path d="M71.3999 130.446C71.2456 130.647 71.0318 130.8 70.7583 130.903C70.4849 131.007 70.1743 131.059 69.8267 131.059C69.4693 131.059 69.1529 130.978 68.8775 130.815C68.6021 130.653 68.3892 130.422 68.2388 130.121C68.0904 129.818 68.0132 129.466 68.0073 129.063V128.729C68.0073 128.085 68.1616 127.582 68.4702 127.221C68.7788 126.857 69.2095 126.676 69.7622 126.676C70.2368 126.676 70.6138 126.793 70.8931 127.027C71.1724 127.262 71.3404 127.6 71.397 128.041H70.6704C70.5884 127.527 70.2905 127.271 69.7769 127.271C69.4448 127.271 69.1919 127.391 69.0181 127.631C68.8462 127.869 68.7573 128.22 68.7515 128.683V129.011C68.7515 129.472 68.8482 129.83 69.0415 130.086C69.2368 130.34 69.5073 130.467 69.853 130.467C70.232 130.467 70.5015 130.381 70.6616 130.209V129.374H69.7827V128.812H71.3999V130.446Z" fill="#282829"/>
<path d="M75.2775 129.096H73.5256V130.408H75.5734V131H72.7844V126.734H75.5529V127.332H73.5256V128.51H75.2775V129.096ZM74.3957 125.571H75.2072L74.3957 126.459H73.8244L74.3957 125.571Z" fill="#282829"/>
<path d="M77.4882 130.408H79.4247V131H76.747V126.734H77.4882V130.408Z" fill="#282829"/>
<path d="M81.3453 131H80.607V126.734H81.3453V131Z" fill="#282829"/>
<path d="M86.0813 129.611C86.0383 130.066 85.8704 130.422 85.5774 130.678C85.2844 130.932 84.8948 131.059 84.4084 131.059C84.0686 131.059 83.7688 130.979 83.509 130.818C83.2512 130.656 83.052 130.427 82.9114 130.13C82.7707 129.833 82.6975 129.488 82.6916 129.096V128.697C82.6916 128.295 82.7629 127.94 82.9055 127.634C83.0481 127.327 83.2522 127.091 83.5178 126.925C83.7854 126.759 84.094 126.676 84.4436 126.676C84.9143 126.676 85.2932 126.804 85.5803 127.06C85.8674 127.315 86.0344 127.677 86.0813 128.144H85.343C85.3079 127.837 85.218 127.616 85.0735 127.481C84.9309 127.345 84.7209 127.276 84.4436 127.276C84.1213 127.276 83.8733 127.395 83.6995 127.631C83.5276 127.865 83.4397 128.21 83.4358 128.665V129.043C83.4358 129.504 83.5178 129.855 83.6819 130.098C83.8479 130.34 84.0901 130.461 84.4084 130.461C84.6995 130.461 84.9182 130.396 85.0647 130.265C85.2112 130.134 85.3039 129.916 85.343 129.611H86.0813Z" fill="#282829"/>
<path d="M89.704 130.007H88.0517L87.706 131H86.9355L88.5468 126.734H89.2118L90.8261 131H90.0527L89.704 130.007ZM88.2597 129.409H89.496L88.8779 127.64L88.2597 129.409Z" fill="#282829"/>
<path d="M93.9466 131V126.734H95.2063C95.5833 126.734 95.9173 126.818 96.2083 126.986C96.5013 127.154 96.7278 127.393 96.888 127.701C97.0481 128.01 97.1282 128.363 97.1282 128.762V128.976C97.1282 129.38 97.0471 129.735 96.885 130.042C96.7249 130.349 96.4954 130.585 96.1966 130.751C95.8997 130.917 95.5589 131 95.1741 131H93.9466ZM94.6878 127.332V130.408H95.1712C95.5598 130.408 95.8577 130.287 96.0647 130.045C96.2737 129.801 96.3802 129.451 96.3841 128.996V128.759C96.3841 128.296 96.2835 127.942 96.0823 127.698C95.8811 127.454 95.5891 127.332 95.2063 127.332H94.6878Z" fill="#282829"/>
<path d="M100.93 129.096H99.1777V130.408H101.226V131H98.4365V126.734H101.205V127.332H99.1777V128.51H100.93V129.096Z" fill="#282829"/>
<path d="M106.693 129.901C106.693 129.714 106.626 129.569 106.493 129.468C106.363 129.366 106.125 129.264 105.782 129.16C105.438 129.057 105.164 128.941 104.961 128.814C104.573 128.57 104.378 128.252 104.378 127.859C104.378 127.516 104.518 127.232 104.797 127.01C105.078 126.787 105.443 126.676 105.89 126.676C106.187 126.676 106.451 126.73 106.684 126.84C106.916 126.949 107.099 127.105 107.232 127.309C107.365 127.51 107.431 127.733 107.431 127.979H106.693C106.693 127.757 106.622 127.583 106.482 127.458C106.343 127.331 106.144 127.268 105.884 127.268C105.642 127.268 105.453 127.319 105.319 127.423C105.186 127.526 105.119 127.671 105.119 127.856C105.119 128.013 105.192 128.144 105.336 128.249C105.481 128.353 105.719 128.454 106.051 128.554C106.383 128.651 106.65 128.764 106.851 128.891C107.052 129.016 107.2 129.16 107.293 129.324C107.387 129.486 107.434 129.677 107.434 129.896C107.434 130.251 107.297 130.534 107.024 130.745C106.752 130.954 106.383 131.059 105.916 131.059C105.608 131.059 105.324 131.002 105.064 130.889C104.806 130.773 104.605 130.615 104.46 130.414C104.318 130.213 104.246 129.979 104.246 129.711H104.988C104.988 129.953 105.068 130.141 105.228 130.273C105.388 130.406 105.618 130.473 105.916 130.473C106.174 130.473 106.368 130.421 106.496 130.317C106.627 130.212 106.693 130.073 106.693 129.901Z" fill="#282829"/>
<path d="M111.042 130.007H109.39L109.044 131H108.273L109.885 126.734H110.55L112.164 131H111.391L111.042 130.007ZM109.598 129.409H110.834L110.216 127.64L109.598 129.409ZM111.303 125.656C111.303 125.871 111.24 126.05 111.115 126.192C110.992 126.335 110.837 126.406 110.649 126.406C110.573 126.406 110.507 126.398 110.45 126.383C110.396 126.365 110.316 126.327 110.213 126.269C110.111 126.21 110.039 126.175 109.996 126.163C109.955 126.151 109.909 126.146 109.858 126.146C109.784 126.146 109.721 126.174 109.668 126.23C109.617 126.285 109.592 126.357 109.592 126.447L109.155 126.424C109.155 126.209 109.217 126.028 109.34 125.882C109.465 125.735 109.62 125.662 109.806 125.662C109.917 125.662 110.051 125.706 110.207 125.794C110.365 125.882 110.495 125.926 110.597 125.926C110.671 125.926 110.734 125.898 110.787 125.844C110.84 125.787 110.866 125.713 110.866 125.621L111.303 125.656Z" fill="#282829"/>
<path d="M116.56 128.979C116.56 129.396 116.488 129.764 116.343 130.08C116.199 130.395 115.992 130.637 115.722 130.807C115.455 130.975 115.146 131.059 114.797 131.059C114.451 131.059 114.142 130.975 113.871 130.807C113.601 130.637 113.392 130.396 113.244 130.083C113.097 129.771 113.023 129.41 113.021 129.002V128.762C113.021 128.346 113.094 127.979 113.241 127.66C113.389 127.342 113.597 127.099 113.865 126.931C114.134 126.761 114.443 126.676 114.791 126.676C115.138 126.676 115.446 126.76 115.714 126.928C115.983 127.094 116.191 127.334 116.338 127.648C116.484 127.961 116.558 128.325 116.56 128.741V128.979ZM115.819 128.756C115.819 128.283 115.729 127.921 115.549 127.669C115.372 127.417 115.119 127.291 114.791 127.291C114.47 127.291 114.219 127.417 114.038 127.669C113.858 127.919 113.766 128.273 113.762 128.732V128.979C113.762 129.447 113.853 129.81 114.035 130.065C114.218 130.321 114.472 130.449 114.797 130.449C115.125 130.449 115.377 130.324 115.552 130.074C115.73 129.824 115.819 129.459 115.819 128.979V128.756Z" fill="#282829"/>
<path d="M120.674 129.415V131H119.933V126.734H121.564C122.041 126.734 122.419 126.858 122.698 127.106C122.98 127.354 123.12 127.683 123.12 128.091C123.12 128.509 122.982 128.834 122.707 129.066C122.434 129.299 122.05 129.415 121.556 129.415H120.674ZM120.674 128.82H121.564C121.828 128.82 122.029 128.759 122.168 128.636C122.307 128.511 122.376 128.331 122.376 128.097C122.376 127.866 122.306 127.683 122.165 127.546C122.024 127.407 121.831 127.336 121.585 127.332H120.674V128.82Z" fill="#282829"/>
<path d="M126.207 130.007H124.554L124.209 131H123.438L125.05 126.734H125.715L127.329 131H126.555L126.207 130.007ZM124.762 129.409H125.999L125.381 127.64L124.762 129.409Z" fill="#282829"/>
<path d="M131.453 126.734V129.585C131.453 130.038 131.307 130.397 131.016 130.663C130.727 130.927 130.341 131.059 129.859 131.059C129.371 131.059 128.983 130.929 128.696 130.669C128.409 130.407 128.265 130.045 128.265 129.582V126.734H129.003V129.588C129.003 129.873 129.076 130.091 129.22 130.241C129.365 130.392 129.578 130.467 129.859 130.467C130.429 130.467 130.714 130.166 130.714 129.564V126.734H131.453Z" fill="#282829"/>
<path d="M133.558 130.408H135.494V131H132.816V126.734H133.558V130.408Z" fill="#282829"/>
<path d="M139.849 128.979C139.849 129.396 139.777 129.764 139.633 130.08C139.488 130.395 139.281 130.637 139.011 130.807C138.744 130.975 138.435 131.059 138.086 131.059C137.74 131.059 137.431 130.975 137.16 130.807C136.89 130.637 136.681 130.396 136.533 130.083C136.386 129.771 136.312 129.41 136.31 129.002V128.762C136.31 128.346 136.384 127.979 136.53 127.66C136.678 127.342 136.886 127.099 137.154 126.931C137.424 126.761 137.732 126.676 138.08 126.676C138.427 126.676 138.735 126.76 139.003 126.928C139.272 127.094 139.48 127.334 139.627 127.648C139.773 127.961 139.847 128.325 139.849 128.741V128.979ZM139.108 128.756C139.108 128.283 139.018 127.921 138.839 127.669C138.661 127.417 138.408 127.291 138.08 127.291C137.76 127.291 137.509 127.417 137.327 127.669C137.147 127.919 137.055 128.273 137.052 128.732V128.979C137.052 129.447 137.142 129.81 137.324 130.065C137.508 130.321 137.761 130.449 138.086 130.449C138.414 130.449 138.666 130.324 138.842 130.074C139.019 129.824 139.108 129.459 139.108 128.979V128.756Z" fill="#282829"/>
<defs>
<linearGradient id="paint0_linear_5_7" x1="72" y1="46.5" x2="82.5" y2="31" gradientUnits="userSpaceOnUse">
<stop stop-color="#9E262A"/>
<stop offset="1" stop-color="#E32C36"/>
</linearGradient>
<linearGradient id="paint1_linear_5_7" x1="73.5" y1="49.5" x2="83" y2="33" gradientUnits="userSpaceOnUse">
<stop stop-color="#A00F15"/>
<stop offset="1" stop-color="#E51522"/>
</linearGradient>
<linearGradient id="paint2_linear_5_7" x1="66.5" y1="37.5" x2="80" y2="20.5" gradientUnits="userSpaceOnUse">
<stop stop-color="#982529"/>
<stop offset="1" stop-color="#D72B35"/>
</linearGradient>
<linearGradient id="paint3_linear_5_7" x1="79.5" y1="17.5" x2="70" y2="43.5" gradientUnits="userSpaceOnUse">
<stop stop-color="#D4131E"/>
<stop offset="1" stop-color="#9C0F14"/>
</linearGradient>
<linearGradient id="paint4_linear_5_7" x1="81" y1="56" x2="90.5" y2="52.5" gradientUnits="userSpaceOnUse">
<stop stop-color="#C78A17"/>
<stop offset="1" stop-color="#C99B48"/>
</linearGradient>
<linearGradient id="paint5_linear_5_7" x1="78" y1="70" x2="90.5" y2="65.5" gradientUnits="userSpaceOnUse">
<stop stop-color="#C78A17"/>
<stop offset="1" stop-color="#C99B48"/>
</linearGradient>
<linearGradient id="paint6_linear_5_7" x1="69.0149" y1="56" x2="59.5149" y2="52.5" gradientUnits="userSpaceOnUse">
<stop stop-color="#C78A17"/>
<stop offset="1" stop-color="#C99B48"/>
</linearGradient>
<linearGradient id="paint7_linear_5_7" x1="72.0149" y1="70" x2="59.5149" y2="65.5" gradientUnits="userSpaceOnUse">
<stop stop-color="#C78A17"/>
<stop offset="1" stop-color="#C99B48"/>
</linearGradient>
</defs>
</svg>
